HIERARCHY
ROOT Hips
{
	OFFSET 0.000000 0.000000 0.000000
	CHANNELS 6 Xposition Yposition Zposition Zrotation Yrotation Xrotation 
	JOINT LHipJoint
	{
		OFFSET 0.000000 0.000000 0.000000
		CHANNELS 3 Zrotation Yrotation Xrotation
		JOINT LeftUpLeg
		{
			OFFSET 1.363060 -1.794630 0.839290
			CHANNELS 3 Zrotation Yrotation Xrotation
			JOINT LeftLeg
			{
				OFFSET 2.448110 -6.726130 0.000000
				CHANNELS 3 Zrotation Yrotation Xrotation
				JOINT LeftFoot
				{
					OFFSET 2.562200 -7.039590 0.000000
					CHANNELS 3 Zrotation Yrotation Xrotation
					JOINT LeftToeBase
					{
						OFFSET 0.157640 -0.433110 2.322550
						CHANNELS 3 Zrotation Yrotation Xrotation
						End Site
						{
							OFFSET 0.000000 0.000000 0.000000
						}
					}
				}
			}
		}
	}
	JOINT RHipJoint
	{
		OFFSET 0.000000 0.000000 0.000000
		CHANNELS 3 Zrotation Yrotation Xrotation
		JOINT RightUpLeg
		{
			OFFSET -1.305520 -1.794630 0.839290
			CHANNELS 3 Zrotation Yrotation Xrotation
			JOINT RightLeg
			{
				OFFSET -2.542530 -6.985550 0.000000
				CHANNELS 3 Zrotation Yrotation Xrotation
				JOINT RightFoot
				{
					OFFSET -2.568260 -7.056230 0.000000
					CHANNELS 3 Zrotation Yrotation Xrotation
					JOINT RightToeBase
					{
						OFFSET -0.164730 -0.452590 2.363150
						CHANNELS 3 Zrotation Yrotation Xrotation
						End Site
						{
							OFFSET 0.000000 0.000000 0.000000
						}
					}
				}
			}
		}
	}
}
MOTION
Frames: 22
Frame Time: 0.008333
2.982233 17.587716 -0.621334 139.035339 -42.255351 -133.148936 -0.902613 -3.475972 5.285013 30.079363 7.336321 -81.323631 -0.533275 -0.687743 2.218724 1.460314 8.619776 35.165872 5.953900 -0.000000 -47.108400 19.295426 5.109111 0.333465 -25.348614 2.949190 -17.870139 -2.498693 -1.681607 13.367742 -0.236900 1.522250 -1.087458 0.137600 -0.000000 -65.814901
2.978689 17.598412 -0.616152 139.500963 -41.764252 -133.902707 -0.941747 -3.526983 5.042604 29.373896 7.812585 -79.267875 -0.733027 -0.819828 -1.036008 1.325588 8.053992 34.889329 5.554000 0.000000 -45.658200 19.228673 4.956332 0.408830 -25.249635 3.461772 -17.396047 -2.502323 -1.650766 12.768160 -0.224572 1.556342 -0.816908 0.142300 -0.000000 -65.727100
2.974438 17.607767 -0.612041 139.862961 -41.316579 -134.486460 -0.964835 -3.583635 4.827446 28.098500 8.280080 -78.004302 -0.992466 -0.902293 -3.155027 1.158317 7.050427 34.514618 4.848400 -0.000000 -44.915000 19.175396 4.818893 0.509671 -25.216997 3.923343 -17.041537 -2.515539 -1.616506 12.239034 -0.220514 1.540736 -0.561996 0.138600 0.000000 -65.619900
2.969867 17.615528 -0.608958 140.097688 -40.941199 -134.868191 -0.979394 -3.625166 4.656045 26.616164 8.625391 -77.303774 -1.255131 -0.951070 -4.334773 1.001238 5.987701 34.124510 4.110700 0.000001 -44.949300 19.141646 4.703411 0.625579 -25.257356 4.294323 -16.814968 -2.538347 -1.582211 11.789546 -0.223676 1.485270 -0.327849 0.128100 0.000000 -65.502500
2.964905 17.621701 -0.606329 140.214498 -40.651383 -135.065364 -0.995740 -3.639399 4.532778 25.257004 8.755363 -76.898330 -1.471513 -0.972578 -4.793531 0.890893 5.213199 33.821219 3.579200 -0.000000 -45.732100 19.126680 4.610806 0.745454 -25.357964 4.563959 -16.699343 -2.568136 -1.550631 11.420033 -0.232390 1.402588 -0.120542 0.112800 0.000001 -65.380400
2.959148 17.626356 -0.603401 140.247485 -40.443307 -135.130386 -1.022071 -3.628437 4.446704 24.103785 8.666944 -76.667249 -1.634546 -0.962868 -4.631383 0.827395 4.739248 33.637660 3.254900 -0.000000 -46.996800 19.122603 4.536752 0.861235 -25.489118 4.747456 -16.660505 -2.600407 -1.522071 11.122968 -0.245041 1.302244 0.054079 0.094000 -0.000000 -65.254100
2.952335 17.629583 -0.599621 140.229170 -40.303532 -135.122593 -1.061174 -3.600298 4.379401 23.118748 8.397600 -76.550601 -1.755955 -0.918339 -3.929736 0.795386 4.426758 33.589253 3.039700 0.000001 -48.410099 19.120905 4.475270 0.967581 -25.621846 4.868408 -16.658259 -2.630924 -1.495945 10.885422 -0.259843 1.193344 0.192930 0.073100 0.000000 -65.120900
2.944238 17.631579 -0.594780 140.187361 -40.216487 -135.092032 -1.112610 -3.561505 4.316386 22.302024 7.972403 -76.446256 -1.838768 -0.843422 -2.841127 0.786502 4.199349 33.711609 2.881400 -0.000000 -49.684900 19.115862 4.421220 1.060295 -25.735811 4.946515 -16.656389 -2.656470 -1.472089 10.692746 -0.275073 1.084914 0.295880 0.051599 -0.000000 -64.981400
2.934668 17.632687 -0.588769 140.145246 -40.171293 -135.076925 -1.175497 -3.517290 4.249037 21.658150 7.412190 -76.263927 -1.884640 -0.747402 -1.531730 0.793553 3.998678 34.010994 2.740000 -0.000000 -50.550800 19.102131 4.370226 1.136396 -25.814179 4.999791 -16.627831 -2.674626 -1.450164 10.529698 -0.290034 0.979998 0.364614 0.030100 0.000000 -64.833100
2.923757 17.633024 -0.582050 140.108549 -40.160119 -135.086233 -1.247652 -3.468191 4.180231 21.252125 6.706200 -75.891390 -1.885569 -0.647644 -0.214454 0.819531 3.873975 34.489957 2.648900 -0.000000 -50.875800 19.079170 4.320720 1.194514 -25.851737 5.037436 -16.561428 -2.685477 -1.430400 10.384253 -0.305202 0.876108 0.402807 0.008500 -0.000000 -64.674300
2.911434 17.632991 -0.574735 140.090040 -40.183790 -135.126806 -1.329568 -3.415290 4.113769 21.060930 5.869437 -75.322749 -1.849958 -0.554755 1.000643 0.855756 3.778037 35.073794 2.575400 -0.000000 -50.584100 19.042171 4.269851 1.235030 -25.835546 5.074303 -16.453674 -2.688615 -1.411681 10.243598 -0.322770 0.759772 0.414504 -0.015700 -0.000001 -64.493400
2.897768 17.632822 -0.567203 140.093205 -40.245032 -135.188506 -1.420971 -3.356537 4.058531 21.081584 4.900057 -74.560345 -1.783112 -0.478686 2.016829 0.899328 3.730626 35.688703 2.533601 0.000000 -49.771800 18.989959 4.216550 1.260560 -25.763331 5.120319 -16.314404 -2.685235 -1.393468 10.101997 -0.345431 0.615756 0.402895 -0.045100 -0.000000 -64.275100
2.883032 17.632717 -0.560160 140.113750 -40.345452 -135.250762 -1.520246 -3.288005 4.024520 21.305657 3.789485 -73.623076 -1.690268 -0.426519 2.762960 0.950626 3.790515 36.280305 2.565900 0.000000 -48.697201 18.924695 4.160141 1.276394 -25.641905 5.185942 -16.159688 -2.678412 -1.375607 9.957417 -0.376922 0.423619 0.372942 -0.083200 -0.000000 -64.021100
2.867352 17.632773 -0.553796 140.156622 -40.484652 -135.308359 -1.627530 -3.209394 4.012931 21.645279 2.570348 -72.597429 -1.587876 -0.393792 3.282383 1.000514 3.917595 36.762532 2.645601 0.000000 -47.577100 18.844149 4.098145 1.288541 -25.468948 5.289968 -16.002511 -2.669551 -1.357085 9.811033 -0.420436 0.165091 0.325855 -0.133401 -0.000000 -63.718199
2.851004 17.633066 -0.548436 140.220593 -40.659427 -135.353167 -1.740646 -3.119783 4.024246 22.044032 1.260763 -71.534068 -1.484710 -0.377470 3.604135 1.047386 4.132077 37.102151 2.787700 0.000000 -46.674000 18.750536 4.029674 1.303188 -25.253787 5.445019 -15.856112 -2.661095 -1.337875 9.667787 -0.478434 -0.172482 0.263474 -0.197700 0.000000 -63.374300
2.833860 17.633629 -0.543902 140.316169 -40.862337 -135.393745 -1.860161 -3.023034 4.051035 22.385881 -0.077336 -70.522749 -1.397059 -0.367197 3.846258 1.081056 4.346698 37.239259 2.929100 0.000000 -46.060500 18.640822 3.952492 1.325910 -24.993881 5.668558 -15.729199 -2.653051 -1.317143 9.537981 -0.551961 -0.594326 0.182361 -0.276900 -0.000000 -62.965600
2.815990 17.634347 -0.540200 140.443171 -41.085623 -135.431956 -1.984191 -2.921528 4.087897 22.613510 -1.413528 -69.590308 -1.330138 -0.358848 4.067604 1.101078 4.551220 37.182026 3.061400 -0.000000 -45.834400 18.517389 3.866966 1.360995 -24.700124 5.966455 -15.630065 -2.646421 -1.295370 9.434860 -0.640762 -1.096507 0.079501 -0.369600 0.000000 -62.485100
2.797767 17.634973 -0.537651 140.589537 -41.320934 -135.465446 -2.109048 -2.816653 4.129944 22.701703 -2.739512 -68.727482 -1.283800 -0.351602 4.290549 1.111676 4.768172 36.982137 3.200600 0.000000 -46.074100 18.386764 3.775734 1.409831 -24.389596 6.327711 -15.562424 -2.642389 -1.273726 9.368284 -0.742373 -1.662168 -0.044152 -0.472100 0.000001 -61.985200
2.778842 17.635423 -0.535970 140.758965 -41.562761 -135.504369 -2.235018 -2.711887 4.169955 22.604603 -4.027059 -67.942729 -1.260883 -0.341027 4.577144 1.111441 4.952340 36.666925 3.314300 0.000001 -46.690600 18.249787 3.680107 1.472084 -24.066855 6.742637 -15.526893 -2.639326 -1.252736 9.351395 -0.853073 -2.268668 -0.193338 -0.579200 -0.000000 -61.462700
2.759262 17.635345 -0.535101 140.942849 -41.807353 -135.554373 -2.361987 -2.609793 4.201521 22.294846 -5.260043 -67.226461 -1.261754 -0.324222 4.965044 1.100641 5.073365 36.280447 3.382000 -0.000001 -47.558000 18.109398 3.582859 1.544669 -23.735598 7.186160 -15.520450 -2.635365 -1.232974 9.391590 -0.967208 -2.883917 -0.369144 -0.684099 -0.000000 -60.965000
2.738429 17.634683 -0.534428 141.149558 -42.056568 -135.627983 -2.493596 -2.513129 4.219641 21.753248 -6.412789 -66.576373 -1.285565 -0.296937 5.496743 1.077808 5.081767 35.855209 3.370701 0.000000 -48.511199 17.962316 3.484655 1.625359 -23.388247 7.647003 -15.543950 -2.627030 -1.214532 9.502483 -1.080551 -3.484702 -0.580934 -0.781200 -0.000000 -60.431500
2.716151 17.633273 -0.534022 141.367541 -42.315533 -135.722133 -2.629678 -2.420214 4.225045 21.012930 -7.505058 -65.952487 -1.325142 -0.260441 6.144776 1.048544 5.015903 35.451097 3.310400 0.000000 -49.417400 17.813022 3.388953 1.707420 -23.026590 8.080979 -15.590461 -2.611874 -1.197868 9.678439 -1.185821 -4.032954 -0.823626 -0.862700 0.000000 -59.951400
